<svg width="14" height="13" viewBox="0 0 14 13" fill="none" xmlns="http://www.w3.org/2000/svg">
<path fill-rule="evenodd" clip-rule="evenodd" d="M13.5173 6.5529C13.5173 6.31863 13.4296 6.09395 13.2735 5.9283C13.1174 5.76265 12.9056 5.66959 12.6849 5.66959H3.04059L6.61495 1.87842C6.69234 1.79629 6.75373 1.6988 6.79562 1.59149C6.8375 1.48419 6.85906 1.36918 6.85906 1.25304C6.85906 1.13689 6.8375 1.02188 6.79562 0.914581C6.75373 0.807278 6.69234 0.70978 6.61495 0.627653C6.53755 0.545527 6.44567 0.48038 6.34455 0.435934C6.24343 0.391487 6.13505 0.368611 6.0256 0.368611C5.91615 0.368611 5.80777 0.391487 5.70665 0.435934C5.60553 0.48038 5.51365 0.545527 5.43626 0.627653L0.441816 5.92751C0.364297 6.00956 0.302794 6.10704 0.26083 6.21435C0.218866 6.32167 0.197266 6.43671 0.197266 6.5529C0.197266 6.66908 0.218866 6.78413 0.26083 6.89144C0.302794 6.99875 0.364297 7.09623 0.441816 7.17828L5.43626 12.4781C5.59256 12.644 5.80456 12.7372 6.0256 12.7372C6.24665 12.7372 6.45864 12.644 6.61495 12.4781C6.77125 12.3123 6.85906 12.0873 6.85906 11.8528C6.85906 11.6182 6.77125 11.3932 6.61495 11.2274L3.04059 7.43621H12.6849C12.9056 7.43621 13.1174 7.34314 13.2735 7.17749C13.4296 7.01184 13.5173 6.78717 13.5173 6.5529Z" fill="#77BE1D"/>
</svg>
