<svg width="23" height="28" viewBox="0 0 23 28" fill="none" xmlns="http://www.w3.org/2000/svg">
<path d="M12.3846 7.875V0H6.19231C5.48846 0 4.81345 0.276562 4.31575 0.768845C3.81806 1.26113 3.53846 1.92881 3.53846 2.625V21.875C3.53846 22.5712 3.81806 23.2389 4.31575 23.7312C4.81345 24.2234 5.48846 24.5 6.19231 24.5H20.3462C21.05 24.5 21.725 24.2234 22.2227 23.7312C22.7204 23.2389 23 22.5712 23 21.875V10.5H15.0385C14.3346 10.5 13.6596 10.2234 13.1619 9.73116C12.6642 9.23887 12.3846 8.57119 12.3846 7.875ZM14.1538 7.875V0.4375L22.5577 8.75H15.0385C14.8038 8.75 14.5788 8.65781 14.4129 8.49372C14.247 8.32962 14.1538 8.10706 14.1538 7.875ZM0 5.25C0 4.78587 0.186401 4.34075 0.518196 4.01256C0.849991 3.68437 1.3 3.5 1.76923 3.5V21.875C1.76923 23.0353 2.23523 24.1481 3.06472 24.9686C3.89421 25.7891 5.01923 26.25 6.19231 26.25H19.4615C19.4615 26.7141 19.2751 27.1593 18.9433 27.4874C18.6115 27.8156 18.1615 28 17.6923 28H6.27723C4.61241 28 3.01577 27.3458 1.83856 26.1814C0.661349 25.017 0 23.4377 0 21.791V5.25Z" fill="#4277FF"/>
</svg>
