<svg width="20" height="21" viewBox="0 0 20 21" fill="none" xmlns="http://www.w3.org/2000/svg">
<path fill-rule="evenodd" clip-rule="evenodd" d="M2.21628 2.19119L0 1.98591L0.187908 0L3.74441 0.329424L4.66348 3.2691L20 4.68966L19.3033 12.0527L5.99681 14.2833L2.21628 2.19119ZM5.30849 5.33216L7.40094 12.0249L17.4404 10.342L17.8049 6.48965L5.30849 5.33216Z" fill="black"/>
<path fill-rule="evenodd" clip-rule="evenodd" d="M15.6423 19.0054C15.9206 19.0054 16.1463 18.7822 16.1463 18.5068C16.1463 18.2314 15.9206 18.0081 15.6423 18.0081C15.3639 18.0081 15.1383 18.2314 15.1383 18.5068C15.1383 18.7822 15.3639 19.0054 15.6423 19.0054ZM15.6423 21C17.034 21 18.1622 19.8837 18.1622 18.5068C18.1622 17.1298 17.034 16.0135 15.6423 16.0135C14.2505 16.0135 13.1223 17.1298 13.1223 18.5068C13.1223 19.8837 14.2505 21 15.6423 21Z" fill="black"/>
<path fill-rule="evenodd" clip-rule="evenodd" d="M7.57844 19.0054C7.85678 19.0054 8.08243 18.7822 8.08243 18.5068C8.08243 18.2314 7.85678 18.0081 7.57844 18.0081C7.30009 18.0081 7.07445 18.2314 7.07445 18.5068C7.07445 18.7822 7.30009 19.0054 7.57844 19.0054ZM7.57844 21C8.97017 21 10.0984 19.8837 10.0984 18.5068C10.0984 17.1298 8.97017 16.0135 7.57844 16.0135C6.18671 16.0135 5.05849 17.1298 5.05849 18.5068C5.05849 19.8837 6.18671 21 7.57844 21Z" fill="black"/>
</svg>
