<svg width="22" height="18" viewBox="0 0 22 18" fill="none" xmlns="http://www.w3.org/2000/svg">
<path d="M20.2635 0.75C20.8083 0.75 21.25 1.19167 21.25 1.73651C21.25 2.01455 21.1327 2.27969 20.9269 2.46666L14.2936 8.49321C13.7199 9.01441 13.3929 9.75351 13.3929 10.5286V16C13.3929 16.6904 12.8332 17.25 12.1429 17.25H9.85714C9.16679 17.25 8.60714 16.6904 8.60714 16V10.5285C8.60714 9.75349 8.28014 9.01447 7.70659 8.49327L1.07274 2.46492C0.867192 2.27813 0.75 2.01328 0.75 1.73554C0.75 1.19124 1.19124 0.75 1.73554 0.75H20.2635Z" stroke="white" stroke-width="1.5"/>
</svg>
