<svg width="26" height="21" viewBox="0 0 26 21" fill="none" xmlns="http://www.w3.org/2000/svg">
<path fill-rule="evenodd" clip-rule="evenodd" d="M7.17875 2.47059C4.48377 2.47059 2.47619 4.45541 2.47619 6.69457C2.47619 7.78053 2.9447 8.84477 3.81685 9.64625L13 18.0853L22.1831 9.64625C23.0553 8.84478 23.5238 7.78053 23.5238 6.69457C23.5238 4.45541 21.5162 2.47059 18.8212 2.47059C17.5427 2.47059 16.3349 2.93827 15.4593 3.74289L13.8388 5.23214C13.3648 5.66772 12.6352 5.66772 12.1612 5.23214L10.5407 3.7429C9.66509 2.93828 8.45731 2.47059 7.17875 2.47059ZM0 6.69457C0 2.90358 3.31187 0 7.17875 0C9.05132 0 10.8656 0.682659 12.2182 1.92567L13 2.6441L13.7818 1.92566C15.1344 0.682658 16.9487 0 18.8212 0C22.6881 0 26 2.90358 26 6.69457C26 8.5044 25.2167 10.2173 23.8607 11.4635L13.8388 20.6733C13.3648 21.1089 12.6352 21.1089 12.1612 20.6733L2.13929 11.4635C0.783262 10.2173 0 8.5044 0 6.69457Z" fill="white"/>
</svg>
