<svg width="20" height="20" viewBox="0 0 20 20" fill="none" xmlns="http://www.w3.org/2000/svg">
<path d="M18.5625 8.9375C18.375 8.6875 18 8.5625 17.625 8.5625H13.375C12.9375 8.5625 12.5625 8.1875 12.5625 7.75V2.4375C12.5625 1.75 11.875 1.25 11.25 1.25C10.625 1.25 10.125 1.75 10.125 2.4375C10.125 3.875 9.6875 5.3125 8.8125 6.5L6.875 8.6875V16C7.9375 16.9375 9.5625 17.5 11.125 17.5H16.4375C17 17.5 17.4375 17.125 17.5625 16.5625L18.8125 9.625C18.75 9.3125 18.75 9.0625 18.5625 8.9375Z" fill="white"/>
<path d="M4.25 9.375H2.625C2.1875 9.375 1.8125 9.75 1.8125 10.1875V16.6875C1.8125 17.125 2.1875 17.5 2.625 17.5H4.25C4.6875 17.5 5.0625 17.125 5.0625 16.6875V10.1875C5.0625 9.75 4.6875 9.375 4.25 9.375Z" fill="white"/>
</svg>
