<svg width="17" height="18" viewBox="0 0 17 18" fill="none" xmlns="http://www.w3.org/2000/svg">
<path fill-rule="evenodd" clip-rule="evenodd" d="M12.8264 2.58545V3.20727H14.3393C14.3536 3.20727 14.3678 3.20757 14.382 3.20817H16.0097C16.5566 3.20817 17 3.64774 17 4.18999C17 4.73223 16.5566 5.17181 16.0097 5.17181H15.3296V15.4145C15.3296 16.1103 15.0417 16.7712 14.5397 17.2535C14.0388 17.7348 13.3659 18 12.6705 18H4.32636C3.63093 18 2.958 17.7348 2.45711 17.2535C1.95517 16.7712 1.66725 16.1103 1.66725 15.4145V5.17181H0.990291C0.443369 5.17181 0 4.73223 0 4.18999C0 3.64774 0.443369 3.20817 0.990291 3.20817H2.61485C2.62901 3.20757 2.64324 3.20727 2.65754 3.20727H4.17048V2.58545C4.17048 1.88967 4.45841 1.22883 4.96035 0.746501C5.46123 0.265179 6.13417 0 6.8296 0H10.1672C10.8627 0 11.5356 0.265179 12.0365 0.746501C12.5384 1.22883 12.8264 1.88967 12.8264 2.58545ZM6.33878 2.15652C6.46382 2.03637 6.63983 1.96364 6.8296 1.96364H10.1672C10.357 1.96364 10.533 2.03637 10.6581 2.15652C10.7821 2.27567 10.8458 2.43062 10.8458 2.58545V3.20727H6.15107V2.58545C6.15107 2.43062 6.21479 2.27567 6.33878 2.15652ZM3.64783 5.17181V15.4145C3.64783 15.5694 3.71155 15.7243 3.83554 15.8435C3.96059 15.9636 4.13659 16.0364 4.32636 16.0364H12.6705C12.8603 16.0364 13.0363 15.9636 13.1613 15.8435C13.2853 15.7243 13.349 15.5694 13.349 15.4145V5.17181H3.64783Z" fill="white"/>
</svg>
