<svg width="24" height="24" viewBox="0 0 24 24" fill="none" xmlns="http://www.w3.org/2000/svg">
<path fill-rule="evenodd" clip-rule="evenodd" d="M21.9992 11.6472C21.9992 16.9753 17.6804 21.2943 12.3532 21.2943C7.026 21.2943 2.70714 16.9753 2.70714 11.6472C2.70714 6.319 7.026 2 12.3532 2C17.6804 2 21.9992 6.319 21.9992 11.6472ZM23.9992 11.6472C23.9992 18.0797 18.7851 23.2943 12.3532 23.2943C9.49714 23.2943 6.88123 22.2661 4.85532 20.5597L1.41428 24.0011L0 22.5869L3.4412 19.1454C1.7351 17.1193 0.707141 14.5033 0.707141 11.6472C0.707141 5.21461 5.92125 0 12.3532 0C18.7851 0 23.9992 5.21461 23.9992 11.6472Z" fill="white"/>
</svg>
