<svg width="44" height="43" viewBox="0 0 44 43" fill="none" xmlns="http://www.w3.org/2000/svg">
<path d="M17.2793 14.9653L21.5337 3.9747C21.6986 3.5487 22.3014 3.54869 22.4663 3.9747L26.7207 14.9653C27.0729 15.8752 27.9224 16.4971 28.8962 16.558L40.1739 17.2628C40.6253 17.291 40.8103 17.8564 40.4628 18.146L32.0595 25.1487C31.343 25.7458 31.0184 26.6922 31.2177 27.6035L33.7861 39.3444C33.8795 39.7714 33.4187 40.1042 33.0427 39.8814L23.2745 34.0929C22.4886 33.6272 21.5114 33.6272 20.7255 34.0929L10.9573 39.8814C10.5813 40.1042 10.1205 39.7714 10.2139 39.3444L12.7823 27.6035C12.9816 26.6922 12.6571 25.7458 11.9405 25.1487L3.5372 18.146C3.18974 17.8564 3.37469 17.291 3.8261 17.2628L15.1038 16.558C16.0776 16.4971 16.9271 15.8752 17.2793 14.9653Z" fill="#EAB308" stroke="white" stroke-width="2"/>
</svg>
