<svg width="20" height="20" viewBox="0 0 20 20" fill="none" xmlns="http://www.w3.org/2000/svg">
<path d="M3.24157 3.68441C3.79434 3.09313 4.42379 2.57444 5.11408 2.14421C7.85951 3.99247 9.03096 7.24784 9.2602 8.6233C9.48707 9.98451 9.74755 13.7963 6.85688 18.6141L7.19519 18.8171C6.33 18.5421 5.51999 18.1433 4.78598 17.6415C6.26374 15.0464 6.58578 12.2971 6.24246 9.89393C5.76219 6.53204 3.98642 4.45977 3.24157 3.68441ZM10 19.25C9.42412 19.25 8.86054 19.1974 8.31379 19.0967C9.33313 17.3401 9.96928 15.7029 10.3542 14.2468C12.7725 14.2026 14.7543 13.7114 15.8354 13.1708C16.3976 12.8897 17.1912 12.3566 17.95 11.7875C18.3835 11.4624 18.822 11.1132 19.2181 10.7742C18.8248 15.5206 14.8479 19.25 10 19.25ZM15.1646 11.8292C14.381 12.221 12.7716 12.6571 10.6801 12.7371C10.9202 11.301 10.9182 10.1072 10.8456 9.23608C12.0656 9.19393 13.224 9.04925 14.2372 8.71151C14.9099 8.48728 15.8575 7.93554 16.6772 7.34059C17.0954 7.03699 17.5022 6.70647 17.8434 6.37779C18.0008 6.22618 18.155 6.06489 18.293 5.89794C18.796 6.91292 19.1182 8.03344 19.2174 9.21736L18.9697 8.96967C18.5044 9.43492 17.7852 10.0361 17.05 10.5875C16.3088 11.1434 15.6024 11.6103 15.1646 11.8292ZM10.6043 7.74259C10.1815 6.0789 9.00435 3.30963 6.61526 1.38885C7.66355 0.976482 8.80533 0.75 10 0.75C13.1974 0.75 16.0159 2.37228 17.6773 4.83863L17.3292 4.66459C17.2618 4.79936 17.0935 5.01745 16.8028 5.29744C16.5239 5.5661 16.1739 5.8524 15.796 6.12667C15.0234 6.68748 14.2211 7.13573 13.7628 7.28849C12.8877 7.58018 11.8223 7.7116 10.6043 7.74259ZM4.75754 10.1061C5.0502 12.1547 4.79324 14.4748 3.60316 16.6816C1.84488 14.9977 0.75 12.6267 0.75 10C0.75 8.10349 1.32075 6.34028 2.29985 4.87278C3.00853 5.64404 4.36903 7.38651 4.75754 10.1061Z" stroke="#FA4B22" stroke-width="1.5"/>
</svg>
