<svg width="32" height="32" viewBox="0 0 32 32" fill="none" xmlns="http://www.w3.org/2000/svg">
<path d="M8.38398 3.02404C12.951 6.06869 14.8801 11.4428 15.2602 13.7233C15.6371 15.9845 16.0476 22.1963 11.3569 30.0141L12.6431 30.7859C14.4924 27.7037 15.5898 24.8478 16.2168 22.3492C20.1961 22.3211 23.4328 21.5221 25.1354 20.6708C25.9976 20.2397 27.2412 19.4066 28.45 18.5C29.4484 17.7512 30.4576 16.9263 31.2488 16.1928C31.1456 24.5263 24.358 31.25 16 31.25C12.6609 31.25 9.57239 30.1768 7.06067 28.3566C9.54542 24.1988 10.0951 19.7621 9.54246 15.8939C8.71933 10.132 5.45943 6.79984 4.56763 5.90699C5.7234 4.59884 7.1002 3.49057 8.63958 2.64063L8.38398 3.02404ZM24.4646 19.3292C23.0671 20.0279 20.2076 20.776 16.5481 20.8449C17.0753 18.0624 17.0221 15.8215 16.8587 14.3412C18.966 14.2969 20.9421 14.0765 22.6372 13.5115C23.6491 13.1742 25.1218 12.3224 26.4191 11.3808C27.0762 10.9038 27.71 10.3882 28.2373 9.88035C28.6693 9.46426 29.0625 9.02247 29.3302 8.58706C30.436 10.5712 31.1116 12.8279 31.2309 15.2309L30.6697 14.6697C29.9044 15.4349 28.7352 16.4111 27.55 17.3C26.3588 18.1934 25.2024 18.9603 24.4646 19.3292ZM22.1628 12.0885C20.6152 12.6044 18.7344 12.8129 16.6144 12.8454C16.0089 10.1802 14.0124 5.23795 9.69612 2.10981C11.6175 1.23644 13.7519 0.75 16 0.75C21.5444 0.75 26.3978 3.70882 29.0672 8.1336L28.1292 7.66459C27.9868 7.94936 27.6734 8.34081 27.1967 8.8C26.7317 9.24788 26.1547 9.71922 25.538 10.1669C24.2877 11.0744 22.9604 11.8226 22.1628 12.0885ZM5.87896 27.4075C2.7326 24.614 0.75 20.5385 0.75 16C0.75 12.6723 1.81588 9.59346 3.62485 7.08638C4.58193 8.05777 7.33689 11.0615 8.05754 16.1061C8.56 19.6233 8.07521 23.6336 5.87896 27.4075Z" stroke="#FA4B22" stroke-width="1.5"/>
</svg>
